<?xml version="1.0" encoding="UTF-8" standalone="no"?>
<svg
   xmlns:dc="http://purl.org/dc/elements/1.1/"
   xmlns:cc="http://creativecommons.org/ns#"
   xmlns:rdf="http://www.w3.org/1999/02/22-rdf-syntax-ns#"
   xmlns:svg="http://www.w3.org/2000/svg"
   xmlns="http://www.w3.org/2000/svg"
   viewBox="0 0 347.19998 107.5104"
   height="107.5104"
   width="347.19998"
   xml:space="preserve"
   id="svg2"
   version="1.1"><metadata
     id="metadata8"><rdf:RDF><cc:Work
         rdf:about=""><dc:format>image/svg+xml</dc:format><dc:type
           rdf:resource="http://purl.org/dc/dcmitype/StillImage" /></cc:Work></rdf:RDF></metadata><defs
     id="defs6" /><g
     transform="matrix(1.3333333,0,0,-1.3333333,0,107.5104)"
     id="g10"><g
       id="g12"><path
         id="path14"
         style="fill:#f36126;fill-opacity:1;fill-rule:nonzero;stroke:none"
         d="m 73.219,0 h 80.633 V 80.633 H 73.219 Z" /><path
         id="path16"
         style="fill:#231f20;fill-opacity:1;fill-rule:nonzero;stroke:none"
         d="m 29.098,59.074 c -2.731,0 -5.246,-0.449 -7.551,-1.347 -2.309,-0.903 -4.285,-2.211 -5.934,-3.93 -1.652,-1.719 -2.941,-3.84 -3.867,-6.363 -0.93,-2.528 -1.391,-5.411 -1.391,-8.653 0,-3.222 0.422,-6.051 1.266,-8.496 0.848,-2.441 2.063,-4.48 3.645,-6.117 1.582,-1.637 3.511,-2.875 5.789,-3.707 2.277,-0.828 4.863,-1.242 7.754,-1.242 2.074,0 4.187,0.16 6.343,0.488 2.157,0.328 4.176,0.809 6.055,1.434 v -8.637 c -1.906,-0.547 -3.965,-0.977 -6.176,-1.289 -2.211,-0.313 -4.504,-0.473 -6.875,-0.473 -4.64,0 -8.715,0.668 -12.234,1.988 -3.524,1.325 -6.461,3.196 -8.82,5.606 -2.36,2.414 -4.133,5.309 -5.321,8.68 C 0.594,30.383 0,34.098 0,38.164 c 0,4.176 0.637,8.051 1.902,11.621 1.27,3.574 3.098,6.672 5.485,9.289 2.386,2.621 5.375,4.68 8.961,6.18 3.59,1.5 7.648,2.269 12.175,2.293 2.321,0 4.516,-0.156 6.59,-0.469 2.071,-0.316 3.942,-0.758 5.606,-1.332 v -8.512 c -2.184,0.68 -4.215,1.161 -6.098,1.434 -1.883,0.269 -3.723,0.406 -5.523,0.406" /><path
         id="path18"
         style="fill:#231f20;fill-opacity:1;fill-rule:nonzero;stroke:none"
         d="m 52.805,51.422 h 9.699 V 11.773 H 52.805 Z M 52.559,71.027 H 62.746 V 60.508 H 52.559 v 10.519" /><path
         id="path20"
         style="fill:#231f20;fill-opacity:1;fill-rule:nonzero;stroke:none"
         d="m 187.145,10.324 c -2.86,0 -5.442,0.281 -7.731,0.84 -2.293,0.559 -4.309,1.367 -6.055,2.418 -1.75,1.047 -3.234,2.328 -4.464,3.848 -1.227,1.511 -2.211,3.222 -2.946,5.132 -0.601,1.528 -1.027,3.219 -1.289,5.075 -0.262,1.855 -0.39,3.929 -0.39,6.222 v 32.246 h 10.027 V 34.758 c 0,-3.879 0.465,-6.903 1.391,-9.086 1.039,-2.43 2.554,-4.184 4.546,-5.262 1.989,-1.074 4.336,-1.613 7.036,-1.613 2.703,0 5.05,0.539 7.039,1.613 1.992,1.078 3.507,2.832 4.546,5.262 0.922,2.183 1.391,5.207 1.391,9.086 V 66.105 H 210.27 V 33.859 c 0,-2.293 -0.129,-4.367 -0.391,-6.222 -0.258,-1.856 -0.688,-3.547 -1.285,-5.075 -0.739,-1.91 -1.731,-3.621 -2.969,-5.132 -1.238,-1.52 -2.758,-2.801 -4.543,-3.848 -1.785,-1.051 -3.84,-1.859 -6.156,-2.418 -2.321,-0.559 -4.91,-0.84 -7.781,-0.84" /><path
         id="path22"
         style="fill:#231f20;fill-opacity:1;fill-rule:nonzero;stroke:none"
         d="m 250.09,27.066 c 0,1.387 -0.344,2.516 -1.024,3.375 -0.683,0.856 -1.609,1.563 -2.785,2.106 -1.172,0.551 -2.488,0.988 -3.945,1.328 -1.457,0.344 -2.996,0.68 -4.606,1.004 -2.128,0.465 -4.164,1.019 -6.097,1.66 -1.938,0.641 -3.641,1.531 -5.117,2.66 -1.469,1.133 -2.645,2.571 -3.52,4.317 -0.871,1.742 -1.308,3.925 -1.308,6.55 0,2.887 0.503,5.407 1.515,7.547 1.012,2.141 2.379,3.914 4.109,5.321 1.735,1.406 3.77,2.453 6.098,3.152 2.336,0.695 4.961,1.043 7.879,1.043 2.922,0 5.856,-0.289 8.801,-0.859 2.945,-0.575 5.484,-1.313 7.609,-2.208 v -8.601 c -2.836,1.121 -5.558,1.934 -8.164,2.437 -2.601,0.504 -5.051,0.758 -7.344,0.758 -3.304,0 -5.847,-0.601 -7.632,-1.801 -1.786,-1.199 -2.68,-2.996 -2.68,-5.402 0,-1.387 0.293,-2.535 0.879,-3.437 0.586,-0.903 1.383,-1.645 2.394,-2.227 1.008,-0.59 2.168,-1.059 3.477,-1.414 1.309,-0.355 2.703,-0.684 4.176,-0.984 2.316,-0.489 4.535,-1.055 6.652,-1.7 2.109,-0.636 3.988,-1.535 5.621,-2.679 1.641,-1.145 2.934,-2.641 3.891,-4.481 0.957,-1.84 1.429,-4.195 1.429,-7.054 0,-2.95 -0.543,-5.5 -1.636,-7.661 -1.09,-2.152 -2.641,-3.929 -4.645,-5.336 -2.004,-1.406 -4.437,-2.445 -7.305,-3.128 -2.863,-0.684 -6,-1.028 -9.414,-1.028 -2.972,0 -5.894,0.297 -8.769,0.883 -2.887,0.582 -5.274,1.41 -7.188,2.477 v 8.468 c 2.704,-1.172 5.332,-2.027 7.903,-2.558 2.558,-0.528 5.207,-0.797 7.933,-0.797 1.582,0 3.141,0.133 4.668,0.39 1.532,0.258 2.899,0.7 4.114,1.329 1.211,0.629 2.187,1.476 2.925,2.558 0.739,1.078 1.106,2.406 1.106,3.992" /><path
         id="path24"
         style="fill:#ffffff;fill-opacity:1;fill-rule:nonzero;stroke:none"
         d="M 131.094,69.332 V 59.055 H 113.727 V 11.301 H 101.523 V 59.055 H 84.082 v 10.277 h 47.012" /><path
         id="path26"
         style="fill:#ffffff;fill-opacity:1;fill-rule:nonzero;stroke:none"
         d="m 131.094,11.301 h 11.379 v 47.742 h -11.379 z" /></g></g></svg>