<?xml version="1.0" encoding="UTF-8" standalone="no"?>
<svg
   xmlns:dc="http://purl.org/dc/elements/1.1/"
   xmlns:cc="http://creativecommons.org/ns#"
   xmlns:rdf="http://www.w3.org/1999/02/22-rdf-syntax-ns#"
   xmlns:svg="http://www.w3.org/2000/svg"
   xmlns="http://www.w3.org/2000/svg"
   viewBox="0 0 187.65466 121.88267"
   height="121.88267"
   width="187.65466"
   xml:space="preserve"
   id="svg2"
   version="1.1"><metadata
     id="metadata8"><rdf:RDF><cc:Work
         rdf:about=""><dc:format>image/svg+xml</dc:format><dc:type
           rdf:resource="http://purl.org/dc/dcmitype/StillImage" /></cc:Work></rdf:RDF></metadata><defs
     id="defs6" /><g
     transform="matrix(1.3333333,0,0,-1.3333333,0,121.88267)"
     id="g10"><g
       id="g12"><path
         id="path14"
         style="fill:#1b458f;fill-opacity:1;fill-rule:nonzero;stroke:none"
         d="m 49.332,0.002 -0.004,91.406 91.414,0.004 V 0.002 h -91.41" /><path
         id="path16"
         style="fill:#1b458f;fill-opacity:1;fill-rule:nonzero;stroke:none"
         d="M 44.73,83.717 V 81.959 C 39.457,81.596 39.277,81.475 39.277,78.08 V 57.24 c 0,-3.637 -0.605,-6.848 -1.636,-8.969 -2.786,-5.996 -9.149,-7.39 -15.149,-7.39 -5.937,0 -12.297,1.453 -15.086,7.39 -1.027,2.063 -1.574,5.274 -1.633,8.848 V 78.08 c 0,3.395 -0.121,3.516 -5.453,3.879 v 1.758 H 17.223 V 81.959 C 11.953,81.596 11.77,81.475 11.77,78.08 V 58.451 c 0,-5.758 0.91,-9.391 2.726,-11.812 1.879,-2.426 4.543,-3.637 7.996,-3.637 3.516,0 6.184,1.211 8.059,3.637 1.816,2.421 2.726,6.054 2.726,11.812 V 78.08 c 0,3.395 -0.121,3.516 -5.453,3.879 v 1.758 H 44.73" /><g
         transform="translate(0,91.412003)"
         id="g18"><path
           id="path20"
           style="fill:none;stroke:#1b458f;stroke-width:0.63510001;stroke-linecap:butt;stroke-linejoin:miter;stroke-miterlimit:4;stroke-dasharray:none;stroke-opacity:1"
           d="m 44.73,-7.695 v -1.758 c -5.273,-0.363 -5.453,-0.485 -5.453,-3.879 v -20.84 c 0,-3.637 -0.605,-6.848 -1.636,-8.969 -2.786,-5.996 -9.149,-7.39 -15.149,-7.39 -5.937,0 -12.297,1.453 -15.086,7.39 -1.027,2.063 -1.574,5.274 -1.633,8.848 v 20.961 c 0,3.394 -0.121,3.516 -5.453,3.879 v 1.758 h 16.903 v -1.758 c -5.27,-0.363 -5.453,-0.485 -5.453,-3.879 v -19.629 c 0,-5.758 0.91,-9.391 2.726,-11.812 1.879,-2.426 4.543,-3.637 7.996,-3.637 3.516,0 6.184,1.211 8.059,3.637 1.816,2.421 2.726,6.054 2.726,11.812 v 19.629 c 0,3.394 -0.121,3.516 -5.453,3.879 v 1.758 z" /></g><path
         id="path22"
         style="fill:#ffffff;fill-opacity:1;fill-rule:nonzero;stroke:none"
         d="m 54.664,54.209 h 1.938 c 1.515,-6.785 5.269,-11.207 10.968,-11.207 5.391,0 8.723,3.148 8.723,8.359 0,5.395 -5.758,8.18 -8.422,9.211 l -1.09,0.426 c -6.359,2.238 -11.453,5.57 -11.453,11.934 0,7.996 6.543,11.695 13.938,11.695 4.121,0 8.238,-1.031 10.296,-2.668 v -8.543 h -1.874 c -0.969,6.117 -3.879,9.09 -9.09,9.09 -5.086,0 -7.754,-3.274 -7.754,-7.696 0,-3.636 3.39,-6.242 7.453,-7.757 l 1.937,-0.727 c 7.09,-2.605 11.938,-5.996 11.938,-13.144 0,-6.18 -4.242,-12.301 -14.969,-12.301 -4.238,0 -9.265,1.152 -11.933,3.636 l -0.606,9.692" /><g
         transform="translate(0,91.412003)"
         id="g24"><path
           id="path26"
           style="fill:none;stroke:#ffffff;stroke-width:0.63510001;stroke-linecap:butt;stroke-linejoin:miter;stroke-miterlimit:4;stroke-dasharray:none;stroke-opacity:1"
           d="m 54.664,-37.203 h 1.938 c 1.515,-6.785 5.269,-11.207 10.968,-11.207 5.391,0 8.723,3.148 8.723,8.359 0,5.395 -5.758,8.18 -8.422,9.211 l -1.09,0.426 c -6.359,2.238 -11.453,5.57 -11.453,11.934 0,7.996 6.543,11.695 13.938,11.695 4.121,0 8.238,-1.031 10.296,-2.668 v -8.543 h -1.874 c -0.969,6.117 -3.879,9.09 -9.09,9.09 -5.086,0 -7.754,-3.274 -7.754,-7.696 0,-3.636 3.39,-6.242 7.453,-7.757 l 1.937,-0.727 c 7.09,-2.605 11.938,-5.996 11.938,-13.144 0,-6.18 -4.242,-12.301 -14.969,-12.301 -4.238,0 -9.265,1.152 -11.933,3.636 z" /></g><path
         id="path28"
         style="fill:#ffffff;fill-opacity:1;fill-rule:nonzero;stroke:none"
         d="m 125.793,72.81 h -1.82 c -1.149,7.149 -5.45,9.696 -11.629,9.696 -11.27,0.058 -15.211,-9.938 -15.211,-19.875 0,-7.328 2.605,-19.629 15.09,-19.629 7.933,0 11.023,4.605 12.722,10.906 h 1.817 l -0.848,-10.117 c -2.91,-1.578 -8.484,-2.91 -13.328,-2.91 -6.789,0 -12.727,1.394 -16.481,5.148 -3.636,3.637 -5.757,9.332 -5.757,16.422 0,6.844 2.062,12.055 5.511,15.934 3.637,4.058 9.637,6.242 17.09,6.242 5.512,0 10.117,-1.094 12.844,-2.363 V 72.81" /><g
         transform="translate(0,91.412003)"
         id="g30"><path
           id="path32"
           style="fill:none;stroke:#ffffff;stroke-width:0.63510001;stroke-linecap:butt;stroke-linejoin:miter;stroke-miterlimit:4;stroke-dasharray:none;stroke-opacity:1"
           d="m 125.793,-18.602 h -1.82 c -1.149,7.149 -5.45,9.696 -11.629,9.696 -11.27,0.058 -15.211,-9.938 -15.211,-19.875 0,-7.328 2.605,-19.629 15.09,-19.629 7.933,0 11.023,4.605 12.722,10.906 h 1.817 l -0.848,-10.117 c -2.91,-1.578 -8.484,-2.91 -13.328,-2.91 -6.789,0 -12.727,1.394 -16.481,5.148 -3.636,3.637 -5.757,9.332 -5.757,16.422 0,6.844 2.062,12.055 5.511,15.934 3.637,4.058 9.637,6.242 17.09,6.242 5.512,0 10.117,-1.094 12.844,-2.363 z" /></g><path
         id="path34"
         style="fill:#ffffff;fill-opacity:1;fill-rule:nonzero;stroke:none"
         d="m 54.574,32.85 -0.054,0.808 -0.375,0.055 -0.055,0.429 h 1.828 l -0.055,-0.429 -0.379,-0.055 -0.05,-0.808 v -2.481 c 0,-0.441 0,-1.148 0.152,-1.551 0.207,-0.582 0.789,-0.886 1.391,-0.886 0.492,0 1.031,0.214 1.289,0.644 0.269,0.449 0.242,1.094 0.242,1.606 v 2.668 l -0.055,0.808 -0.375,0.055 -0.055,0.429 h 1.633 L 59.602,33.713 59.227,33.658 59.172,32.85 v -2.438 c 0,-0.707 0.035,-1.379 -0.36,-2.008 -0.449,-0.707 -1.101,-0.902 -1.898,-0.902 -0.699,0 -1.398,0.16 -1.867,0.734 -0.438,0.535 -0.473,1.274 -0.473,1.946 v 2.668" /><path
         id="path36"
         style="fill:#ffffff;fill-opacity:1;fill-rule:nonzero;stroke:none"
         d="m 61.215,32.85 -0.055,0.808 -0.375,0.055 -0.055,0.429 h 1.157 l 3.398,-5.281 v 3.989 l -0.055,0.808 -0.375,0.055 -0.054,0.429 h 1.578 L 66.324,33.713 65.949,33.658 65.895,32.85 V 27.58 H 65.16 l -3.336,5.191 v -3.82 l 0.055,-0.805 0.375,-0.054 0.055,-0.43 H 60.73 l 0.055,0.43 0.375,0.054 0.055,0.805 v 3.899" /><path
         id="path38"
         style="fill:#ffffff;fill-opacity:1;fill-rule:nonzero;stroke:none"
         d="m 68.047,32.85 -0.055,0.808 -0.379,0.055 -0.051,0.429 h 1.829 L 69.336,33.713 68.961,33.658 68.906,32.85 v -3.899 l 0.055,-0.805 0.375,-0.054 0.055,-0.43 h -1.829 l 0.051,0.43 0.379,0.054 0.055,0.805 v 3.899" /><path
         id="path40"
         style="fill:#ffffff;fill-opacity:1;fill-rule:nonzero;stroke:none"
         d="m 70.887,32.951 -0.325,0.707 -0.265,0.055 -0.055,0.429 h 1.785 l -0.054,-0.429 -0.434,-0.055 1.82,-4.734 1.75,4.734 -0.429,0.055 -0.055,0.429 h 1.383 L 75.953,33.713 75.684,33.658 75.289,32.744 73.391,27.58 h -0.434 l -2.07,5.371" /><path
         id="path42"
         style="fill:#ffffff;fill-opacity:1;fill-rule:nonzero;stroke:none"
         d="m 76.797,27.662 0.051,0.43 0.379,0.054 0.054,0.805 v 3.899 l -0.054,0.808 -0.379,0.055 -0.051,0.429 h 4.105 l -0.054,-0.976 -0.434,0.055 -0.051,0.437 -0.925,0.055 h -1.297 v -2.438 h 2.273 l -0.051,-0.484 -1.086,0.051 h -1.136 v -1.891 l 0.054,-0.805 h 1.469 l 0.887,0.051 0.054,0.485 0.43,0.054 0.055,-1.074 h -4.293" /><path
         id="path44"
         style="fill:#ffffff;fill-opacity:1;fill-rule:nonzero;stroke:none"
         d="m 83.293,30.951 v 2.652 c 0.254,0.063 0.504,0.11 0.762,0.11 0.789,0 1.308,-0.387 1.308,-1.211 0,-0.457 -0.125,-0.934 -0.492,-1.227 -0.387,-0.316 -0.922,-0.324 -1.406,-0.324 z m 0,-0.43 h 0.781 l 1.723,-2.859 h 1.308 l -0.054,0.43 -0.375,0.054 -0.531,0.727 -1.219,1.836 c 0.824,0.269 1.355,0.949 1.355,1.828 0,0.52 -0.199,0.996 -0.636,1.301 -0.387,0.269 -0.879,0.304 -1.336,0.304 h -2.36 l 0.055,-0.429 0.375,-0.055 0.055,-0.808 v -3.899 l -0.055,-0.805 -0.375,-0.054 -0.055,-0.43 h 1.723 l -0.055,0.43 -0.324,0.054 v 2.375" /><path
         id="path46"
         style="fill:#ffffff;fill-opacity:1;fill-rule:nonzero;stroke:none"
         d="m 88.027,28.881 0.43,-0.055 0.055,-0.437 c 0.367,-0.243 0.777,-0.457 1.226,-0.457 0.727,0 1.321,0.464 1.321,1.218 0,0.825 -0.621,1.11 -1.247,1.469 -0.781,0.438 -1.734,0.941 -1.734,1.965 0,0.465 0.207,0.902 0.539,1.226 0.367,0.36 0.817,0.493 1.328,0.493 0.555,0 1.121,-0.098 1.649,-0.27 l -0.055,-1.004 -0.43,0.055 -0.05,0.441 c -0.344,0.203 -0.731,0.348 -1.121,0.348 -0.594,0 -1.016,-0.512 -1.016,-1.086 0,-0.707 0.586,-1.012 1.121,-1.316 0.387,-0.223 0.852,-0.485 1.199,-0.754 0.442,-0.34 0.676,-0.797 0.676,-1.352 0,-1.176 -1.012,-1.863 -2.106,-1.863 -0.621,0 -1.25,0.133 -1.839,0.293 l 0.054,1.086" /><path
         id="path48"
         style="fill:#ffffff;fill-opacity:1;fill-rule:nonzero;stroke:none"
         d="m 93.449,32.85 -0.051,0.808 -0.378,0.055 -0.055,0.429 h 1.832 L 94.738,33.713 94.363,33.658 94.312,32.85 v -3.899 l 0.051,-0.805 0.375,-0.054 0.059,-0.43 h -1.832 l 0.055,0.43 0.378,0.054 0.051,0.805 v 3.899" /><path
         id="path50"
         style="fill:#ffffff;fill-opacity:1;fill-rule:nonzero;stroke:none"
         d="m 97.387,28.197 -0.055,0.754 v 4.762 h 0.582 c 0.797,0 1.566,-0.035 2.18,-0.602 0.601,-0.554 0.816,-1.336 0.816,-2.125 0,-0.687 -0.172,-1.488 -0.609,-2.035 -0.516,-0.644 -1.203,-0.805 -1.992,-0.805 z m -1.403,-0.535 h 2.614 c 0.949,0 1.754,0.188 2.41,0.93 0.59,0.672 0.816,1.59 0.816,2.457 0,0.816 -0.226,1.711 -0.816,2.304 -0.629,0.637 -1.426,0.789 -2.285,0.789 h -2.739 l 0.055,-0.429 0.379,-0.055 0.055,-0.808 v -3.899 l -0.055,-0.805 -0.379,-0.054 -0.055,-0.43" /><path
         id="path52"
         style="fill:#ffffff;fill-opacity:1;fill-rule:nonzero;stroke:none"
         d="m 104.137,30.037 1.183,3.027 1.192,-3.027 z m -0.172,-0.43 h 2.715 l 0.593,-1.461 -0.429,-0.054 -0.055,-0.43 h 1.793 l -0.055,0.43 -0.269,0.054 -0.34,0.707 -2.133,5.399 h -0.519 l -2.036,-5.192 -0.441,-0.914 -0.266,-0.054 -0.054,-0.43 h 1.433 l -0.054,0.43 -0.43,0.054 0.547,1.461" /><path
         id="path54"
         style="fill:#ffffff;fill-opacity:1;fill-rule:nonzero;stroke:none"
         d="m 110.73,28.197 -0.05,0.754 v 4.762 h 0.582 c 0.797,0 1.566,-0.035 2.176,-0.602 0.601,-0.554 0.82,-1.336 0.82,-2.125 0,-0.687 -0.172,-1.488 -0.61,-2.035 -0.511,-0.644 -1.203,-0.805 -1.992,-0.805 z m -1.394,-0.535 h 2.609 c 0.95,0 1.754,0.188 2.41,0.93 0.59,0.672 0.817,1.59 0.817,2.457 0,0.816 -0.227,1.711 -0.817,2.304 -0.628,0.637 -1.425,0.789 -2.285,0.789 h -2.734 l 0.051,-0.429 0.379,-0.055 0.054,-0.808 v -3.899 l -0.054,-0.805 -0.379,-0.054 -0.051,-0.43" /><path
         id="path56"
         style="fill:#ffffff;fill-opacity:1;fill-rule:nonzero;stroke:none"
         d="m 116.301,27.662 0.054,0.43 0.375,0.054 0.055,0.805 v 3.899 l -0.055,0.808 -0.375,0.055 -0.054,0.429 h 4.105 l -0.054,-0.976 -0.43,0.055 -0.055,0.437 -0.922,0.055 h -1.3 v -2.438 h 2.277 l -0.055,-0.484 -1.086,0.051 h -1.136 v -1.891 l 0.054,-0.805 h 1.469 l 0.887,0.051 0.054,0.485 0.43,0.054 0.055,-1.074 h -4.293" /><path
         id="path58"
         style="fill:#ffffff;fill-opacity:1;fill-rule:nonzero;stroke:none"
         d="m 55.594,17.236 -0.055,0.75 v 4.762 h 0.582 c 0.801,0 1.57,-0.035 2.18,-0.602 0.601,-0.554 0.816,-1.336 0.816,-2.125 0,-0.687 -0.168,-1.488 -0.609,-2.035 -0.512,-0.644 -1.199,-0.804 -1.988,-0.804 z m -1.399,-0.539 h 2.61 c 0.949,0 1.757,0.188 2.414,0.934 0.59,0.672 0.812,1.586 0.812,2.453 0,0.816 -0.222,1.715 -0.812,2.305 -0.629,0.636 -1.43,0.789 -2.289,0.789 h -2.735 l 0.055,-0.43 0.379,-0.055 0.051,-0.804 v -3.903 l -0.051,-0.804 -0.379,-0.055 -0.055,-0.43" /><path
         id="path60"
         style="fill:#ffffff;fill-opacity:1;fill-rule:nonzero;stroke:none"
         d="m 61.16,16.697 0.055,0.43 0.379,0.055 0.051,0.804 v 3.903 l -0.051,0.804 -0.379,0.055 -0.055,0.43 h 4.11 l -0.055,-0.977 -0.43,0.055 -0.055,0.437 -0.925,0.055 H 62.508 V 20.31 h 2.277 l -0.055,-0.484 -1.085,0.055 h -1.137 v -1.895 l 0.051,-0.804 h 1.472 l 0.887,0.054 0.055,0.481 0.429,0.054 0.051,-1.074 H 61.16" /><path
         id="path62"
         style="fill:#ffffff;fill-opacity:1;fill-rule:nonzero;stroke:none"
         d="m 69.176,17.916 0.429,-0.055 0.055,-0.437 c 0.367,-0.242 0.778,-0.457 1.227,-0.457 0.726,0 1.316,0.465 1.316,1.218 0,0.825 -0.617,1.11 -1.242,1.469 -0.781,0.442 -1.731,0.942 -1.731,1.965 0,0.465 0.208,0.906 0.536,1.227 0.371,0.359 0.816,0.492 1.328,0.492 0.554,0 1.121,-0.098 1.648,-0.27 l -0.054,-1.004 -0.43,0.055 -0.055,0.441 c -0.34,0.204 -0.723,0.348 -1.117,0.348 -0.594,0 -1.012,-0.512 -1.012,-1.086 0,-0.707 0.582,-1.012 1.117,-1.316 0.387,-0.223 0.852,-0.485 1.204,-0.75 0.437,-0.344 0.671,-0.801 0.671,-1.356 0,-1.175 -1.011,-1.867 -2.105,-1.867 -0.621,0 -1.246,0.137 -1.84,0.297 l 0.055,1.086" /><path
         id="path64"
         style="fill:#ffffff;fill-opacity:1;fill-rule:nonzero;stroke:none"
         d="m 75.297,19.072 1.183,3.031 1.196,-3.031 z m -0.168,-0.43 h 2.715 l 0.594,-1.46 -0.434,-0.055 -0.051,-0.43 h 1.789 l -0.054,0.43 -0.266,0.055 -0.344,0.707 -2.129,5.394 H 76.43 l -2.035,-5.187 -0.442,-0.914 -0.269,-0.055 -0.051,-0.43 h 1.429 l -0.05,0.43 -0.434,0.055 0.551,1.46" /><path
         id="path66"
         style="fill:#ffffff;fill-opacity:1;fill-rule:nonzero;stroke:none"
         d="m 80.98,21.889 -0.05,0.804 -0.379,0.055 -0.055,0.43 h 1.156 l 3.399,-5.282 v 3.993 l -0.055,0.804 -0.375,0.055 -0.055,0.43 h 1.579 L 86.09,22.748 85.715,22.693 85.66,21.889 v -5.274 h -0.734 l -3.336,5.192 v -3.821 l 0.055,-0.804 0.375,-0.055 0.054,-0.43 h -1.578 l 0.055,0.43 0.379,0.055 0.05,0.804 v 3.903" /><path
         id="path68"
         style="fill:#ffffff;fill-opacity:1;fill-rule:nonzero;stroke:none"
         d="M 89.383,22.748 H 88.25 l -0.707,-0.055 -0.055,-0.492 -0.429,-0.055 -0.055,1.032 h 5.613 l -0.055,-1.032 -0.429,0.055 -0.055,0.492 -0.707,0.055 h -1.133 v -4.762 l 0.059,-0.804 0.375,-0.055 0.055,-0.43 h -1.829 l 0.051,0.43 0.379,0.055 0.055,0.804 v 4.762" /><path
         id="path70"
         style="fill:#ffffff;fill-opacity:1;fill-rule:nonzero;stroke:none"
         d="m 93.969,21.889 -0.055,0.804 -0.375,0.055 -0.055,0.43 h 1.828 l -0.05,-0.43 -0.375,-0.055 -0.059,-0.804 v -3.903 l 0.059,-0.804 0.375,-0.055 0.05,-0.43 h -1.828 l 0.055,0.43 0.375,0.055 0.055,0.804 v 3.903" /><path
         id="path72"
         style="fill:#ffffff;fill-opacity:1;fill-rule:nonzero;stroke:none"
         d="m 97.688,19.072 1.183,3.031 1.195,-3.031 z m -0.168,-0.43 h 2.714 l 0.594,-1.46 -0.43,-0.055 -0.054,-0.43 h 1.793 l -0.055,0.43 -0.27,0.055 -0.339,0.707 -2.133,5.394 h -0.52 l -2.035,-5.187 -0.437,-0.914 -0.27,-0.055 -0.055,-0.43 h 1.434 l -0.055,0.43 -0.429,0.055 0.547,1.46" /><path
         id="path74"
         style="fill:#ffffff;fill-opacity:1;fill-rule:nonzero;stroke:none"
         d="m 107.191,18.775 -0.492,0.055 -0.054,0.43 h 1.89 l -0.055,-0.43 -0.375,-0.055 -0.05,-0.922 v -0.996 c -0.684,-0.179 -1.371,-0.324 -2.082,-0.324 -2.063,0 -3.137,1.488 -3.137,3.445 0,0.805 0.223,1.747 0.742,2.383 0.594,0.719 1.426,0.977 2.332,0.977 0.746,0 1.488,-0.125 2.195,-0.321 l -0.05,-1.14 -0.434,0.055 -0.051,0.492 c -0.496,0.277 -1.008,0.484 -1.582,0.484 -1.636,0 -2.238,-1.648 -2.238,-3.039 0,-1.543 0.844,-2.879 2.512,-2.879 0.312,0 0.625,0.055 0.929,0.137 v 1.648" /><path
         id="path76"
         style="fill:#ffffff;fill-opacity:1;fill-rule:nonzero;stroke:none"
         d="m 112.508,16.967 c -1.606,0 -2.09,1.648 -2.09,2.965 0,1.328 0.484,2.976 2.09,2.976 1.597,0 2.082,-1.648 2.082,-2.976 0,-1.317 -0.485,-2.965 -2.082,-2.965 z m 0,-0.434 c 0.914,0 1.711,0.324 2.297,1.043 0.547,0.672 0.699,1.516 0.699,2.356 0,0.898 -0.172,1.765 -0.774,2.457 -0.582,0.664 -1.351,0.949 -2.222,0.949 -0.914,0 -1.723,-0.321 -2.293,-1.039 -0.551,-0.672 -0.711,-1.516 -0.711,-2.367 0,-0.868 0.16,-1.719 0.742,-2.403 0.578,-0.687 1.375,-0.996 2.262,-0.996" /><path
         id="path78"
         style="fill:#ffffff;fill-opacity:1;fill-rule:nonzero;stroke:none"
         d="m 55.594,6.271 -0.055,0.754 v 4.758 h 0.582 c 0.801,0 1.57,-0.035 2.18,-0.601 0.601,-0.555 0.816,-1.336 0.816,-2.122 0,-0.695 -0.168,-1.492 -0.609,-2.035 C 57.996,6.377 57.309,6.217 56.52,6.217 Z M 54.195,5.732 h 2.61 c 0.949,0 1.757,0.188 2.414,0.934 0.59,0.672 0.812,1.586 0.812,2.457 0,0.812 -0.222,1.711 -0.812,2.301 -0.629,0.636 -1.43,0.789 -2.289,0.789 h -2.735 l 0.055,-0.43 0.379,-0.055 0.051,-0.804 V 7.025 L 54.629,6.217 54.25,6.162 54.195,5.732" /><path
         id="path80"
         style="fill:#ffffff;fill-opacity:1;fill-rule:nonzero;stroke:none"
         d="m 61.16,5.732 0.055,0.43 0.379,0.055 0.051,0.808 v 3.899 l -0.051,0.804 -0.379,0.055 -0.055,0.43 h 4.11 l -0.055,-0.977 -0.43,0.055 -0.055,0.437 -0.925,0.055 H 62.508 V 9.346 h 2.277 L 64.73,8.861 63.645,8.916 H 62.508 V 7.025 l 0.051,-0.808 h 1.472 l 0.887,0.054 0.055,0.485 0.429,0.054 0.051,-1.078 H 61.16" /><path
         id="path82"
         style="fill:#ffffff;fill-opacity:1;fill-rule:nonzero;stroke:none"
         d="m 74.25,12.053 -0.055,-1.032 -0.429,0.055 -0.055,0.457 c -0.449,0.258 -0.914,0.41 -1.414,0.41 -0.758,0 -1.363,-0.312 -1.762,-0.965 -0.355,-0.593 -0.527,-1.382 -0.527,-2.074 0,-1.484 0.828,-2.879 2.457,-2.879 0.629,0 1.336,0.211 1.847,0.578 V 6.092 C 73.711,5.705 72.984,5.568 72.285,5.568 c -0.941,0 -1.75,0.239 -2.375,0.981 -0.601,0.699 -0.816,1.558 -0.816,2.465 0,0.824 0.234,1.785 0.781,2.421 0.617,0.723 1.453,0.942 2.375,0.942 0.684,0 1.211,-0.117 1.863,-0.289 l 0.137,-0.035" /><path
         id="path84"
         style="fill:#ffffff;fill-opacity:1;fill-rule:nonzero;stroke:none"
         d="m 78.445,6.002 c -1.605,0 -2.09,1.648 -2.09,2.969 0,1.324 0.485,2.972 2.09,2.972 1.594,0 2.078,-1.648 2.078,-2.972 0,-1.321 -0.484,-2.969 -2.078,-2.969 z m 0,-0.434 c 0.914,0 1.711,0.324 2.293,1.043 0.547,0.672 0.7,1.516 0.7,2.36 0,0.894 -0.168,1.765 -0.77,2.453 -0.582,0.664 -1.356,0.953 -2.223,0.953 -0.914,0 -1.722,-0.324 -2.297,-1.043 -0.546,-0.672 -0.707,-1.516 -0.707,-2.363 0,-0.871 0.161,-1.723 0.747,-2.403 0.57,-0.691 1.371,-1 2.257,-1" /><path
         id="path86"
         style="fill:#ffffff;fill-opacity:1;fill-rule:nonzero;stroke:none"
         d="m 83.715,7.025 0.055,-0.808 0.375,-0.055 0.054,-0.43 h -1.633 l 0.055,0.43 0.375,0.055 0.055,0.808 v 3.899 l -0.055,0.804 -0.375,0.055 -0.055,0.43 h 1.551 l 1.821,-4.77 1.89,4.77 h 1.328 l -0.054,-0.43 -0.375,-0.055 -0.055,-0.804 V 7.025 l 0.055,-0.808 0.375,-0.055 0.054,-0.43 h -1.773 l 0.055,0.43 0.374,0.055 0.051,0.808 v 3.942 h -0.015 l -1.871,-4.75 h -0.434 l -1.813,4.75 H 83.715 V 7.025" /><path
         id="path88"
         style="fill:#ffffff;fill-opacity:1;fill-rule:nonzero;stroke:none"
         d="m 91.684,8.861 v 2.817 c 0.261,0.058 0.519,0.105 0.781,0.105 0.871,0 1.336,-0.367 1.336,-1.262 0,-0.488 -0.153,-0.988 -0.531,-1.3 -0.418,-0.352 -0.895,-0.36 -1.407,-0.36 z m 0,-0.429 h 0.164 c 0.64,0 1.386,0.054 1.961,0.375 0.629,0.359 0.906,1.011 0.906,1.722 0,1.184 -0.781,1.684 -1.891,1.684 H 90.34 l 0.055,-0.43 0.375,-0.055 0.054,-0.804 V 7.025 L 90.77,6.217 90.395,6.162 90.34,5.732 h 1.945 l -0.055,0.43 -0.546,0.055 v 2.215" /><path
         id="path90"
         style="fill:#ffffff;fill-opacity:1;fill-rule:nonzero;stroke:none"
         d="m 98.496,6.002 c -1.601,0 -2.086,1.648 -2.086,2.969 0,1.324 0.485,2.972 2.086,2.972 1.598,0 2.082,-1.648 2.082,-2.972 0,-1.321 -0.484,-2.969 -2.082,-2.969 z m 0,-0.434 c 0.914,0 1.715,0.324 2.293,1.043 0.551,0.672 0.699,1.516 0.699,2.36 0,0.894 -0.168,1.765 -0.769,2.453 -0.582,0.664 -1.352,0.953 -2.223,0.953 -0.914,0 -1.719,-0.324 -2.293,-1.043 -0.547,-0.672 -0.711,-1.516 -0.711,-2.363 0,-0.871 0.164,-1.723 0.746,-2.403 0.574,-0.691 1.371,-1 2.258,-1" /><path
         id="path92"
         style="fill:#ffffff;fill-opacity:1;fill-rule:nonzero;stroke:none"
         d="m 102.648,6.951 0.43,-0.055 0.055,-0.437 c 0.363,-0.242 0.777,-0.457 1.226,-0.457 0.727,0 1.317,0.465 1.317,1.219 0,0.824 -0.617,1.113 -1.246,1.468 -0.778,0.442 -1.727,0.942 -1.727,1.965 0,0.465 0.203,0.906 0.535,1.227 0.367,0.359 0.817,0.496 1.328,0.496 0.555,0 1.122,-0.102 1.649,-0.27 l -0.055,-1.004 -0.43,0.051 -0.054,0.442 c -0.34,0.207 -0.723,0.347 -1.117,0.347 -0.594,0 -1.016,-0.508 -1.016,-1.086 0,-0.707 0.582,-1.011 1.121,-1.316 0.387,-0.223 0.852,-0.481 1.199,-0.75 0.442,-0.344 0.672,-0.801 0.672,-1.356 0,-1.171 -1.012,-1.867 -2.105,-1.867 -0.618,0 -1.242,0.137 -1.836,0.297 l 0.054,1.086" /><path
         id="path94"
         style="fill:#ffffff;fill-opacity:1;fill-rule:nonzero;stroke:none"
         d="m 109.641,11.783 h -1.129 l -0.711,-0.055 -0.055,-0.492 -0.43,-0.054 -0.05,1.031 h 5.609 l -0.055,-1.031 -0.429,0.054 -0.051,0.492 -0.711,0.055 H 110.5 V 7.025 l 0.055,-0.808 0.375,-0.055 0.054,-0.43 h -1.828 l 0.055,0.43 0.375,0.055 0.055,0.808 v 4.758" /><path
         id="path96"
         style="fill:#ffffff;fill-opacity:1;fill-rule:nonzero;stroke:none"
         d="m 113.742,5.732 0.059,0.43 0.375,0.055 0.054,0.808 v 3.899 l -0.054,0.804 -0.375,0.055 -0.059,0.43 h 4.11 l -0.055,-0.977 -0.43,0.055 -0.055,0.437 -0.921,0.055 H 115.09 V 9.346 h 2.277 l -0.055,-0.485 -1.085,0.055 H 115.09 V 7.025 l 0.055,-0.808 h 1.468 l 0.887,0.054 0.055,0.485 0.429,0.054 0.055,-1.078 h -4.297" /><path
         id="path98"
         style="fill:#ffffff;fill-opacity:1;fill-rule:nonzero;stroke:none"
         d="m 119.383,10.924 -0.055,0.804 -0.375,0.055 -0.055,0.43 h 1.829 l -0.051,-0.43 -0.379,-0.055 -0.055,-0.804 V 7.025 l 0.067,-0.808 h 1.461 l 0.914,0.054 0.05,0.602 0.43,0.051 0.055,-1.192 h -4.321 l 0.055,0.43 0.375,0.055 0.055,0.808 v 3.899" /><path
         id="path100"
         style="fill:#ffffff;fill-opacity:1;fill-rule:nonzero;stroke:none"
         d="m 125.211,8.107 1.184,3.032 1.191,-3.032 z m -0.172,-0.429 h 2.719 l 0.59,-1.461 -0.43,-0.055 -0.055,-0.43 h 1.793 l -0.054,0.43 -0.27,0.055 -0.34,0.707 -2.133,5.394 h -0.519 l -2.035,-5.187 -0.442,-0.914 -0.265,-0.055 -0.055,-0.43 h 1.434 l -0.055,0.43 -0.43,0.055 0.547,1.461" /></g></g></svg>